# xmcd CD database file
#
# Track frame offsets:
#	150
#	14810
#	30707
#	44175
#
# Disc length: 774 seconds
#
# Revision: 2
# Processed by: cddbd v1.5.1PL0 Copyright (c) Steve Scherf et al.
# Submitted via: CDex 1.51
#
DISCID=36030404
DTITLE=Keri Noble - How Far Your've Come
DYEAR=1900
DGENRE=Pop
TTITLE0=How Far You've Come
TTITLE1=About Me <New Version>
TTITLE2=Violet Sky
TTITLE3=How Far You've Come <Acoustic Version>
EXTD=
EXTT0=
EXTT1=
EXTT2=
EXTT3=
PLAYORDER=
